<svg xmlns="http://www.w3.org/2000/svg" width="228.406" height="67.336" viewBox="0 0 228.406 67.336">
  <g id="Sedico_Logo" data-name="Sedico Logo" transform="translate(-549.017 -128.768)">
    <g id="Group_1" data-name="Group 1" transform="translate(625.3 145.247)">
      <path id="Path_1" data-name="Path 1" d="M650.723,176.96a13.782,13.782,0,0,1-8.63,2.57,20.723,20.723,0,0,1-6.61-.919,14.132,14.132,0,0,1-5.325-3.4l4.132-4.131a8.849,8.849,0,0,0,3.58,2.158,14.281,14.281,0,0,0,4.315.6q5.783,0,5.784-4.039a3.629,3.629,0,0,0-1.01-2.755,5.661,5.661,0,0,0-2.892-1.147l-3.948-.552a11.033,11.033,0,0,1-6.334-2.708,8.685,8.685,0,0,1-2.341-6.427,9.142,9.142,0,0,1,3.029-7.161,12.172,12.172,0,0,1,8.355-2.755q6.61,0,10.558,3.81l-4.04,3.994a7.73,7.73,0,0,0-3.305-1.882,13.753,13.753,0,0,0-3.4-.367q-5.05,0-5.049,4.131a3.091,3.091,0,0,0,.965,2.341,5.516,5.516,0,0,0,3.029,1.285l3.856.551a11.532,11.532,0,0,1,6.242,2.524q2.524,2.389,2.525,6.932A8.809,8.809,0,0,1,650.723,176.96Z" transform="translate(-630.158 -146.296)" fill="#002643"/>
      <path id="Path_2" data-name="Path 2" d="M662.139,179.273V146.589h21.529v5.693H668.52v7.666h12.9v5.693h-12.9v7.94h15.148v5.693Z" transform="translate(-632.073 -146.314)" fill="#002643"/>
      <path id="Path_3" data-name="Path 3" d="M715.411,166.42a27.276,27.276,0,0,1-.274,3.534,10.927,10.927,0,0,1-3.03,6.2q-3.122,3.122-8.629,3.121h-11.8V146.589h11.8q5.508,0,8.629,3.122a10.824,10.824,0,0,1,3.03,6.059,25.754,25.754,0,0,1,.274,3.443ZM707.654,154.3a5.814,5.814,0,0,0-4.774-2.019h-4.82v21.3h4.82a5.811,5.811,0,0,0,4.774-2.019q1.376-1.7,1.376-8.768Q709.03,156,707.654,154.3Z" transform="translate(-633.841 -146.314)" fill="#002643"/>
      <path id="Path_4" data-name="Path 4" d="M723.855,179.273V146.589h6.381v32.684Z" transform="translate(-635.767 -146.314)" fill="#002643"/>
      <path id="Path_5" data-name="Path 5" d="M761.629,169.2a12.308,12.308,0,0,1-4.086,7.666,12.88,12.88,0,0,1-16.755-.919,9.388,9.388,0,0,1-2.662-4.911,44.658,44.658,0,0,1-.55-8.125,44.669,44.669,0,0,1,.55-8.126,9.4,9.4,0,0,1,2.662-4.911A11.979,11.979,0,0,1,749.6,146.3q10.328,0,12.027,10.329h-6.473q-1.148-4.637-5.508-4.637a5.171,5.171,0,0,0-5.371,4.452,42.529,42.529,0,0,0-.321,6.473,42.506,42.506,0,0,0,.321,6.472,5.171,5.171,0,0,0,5.371,4.452q4.36,0,5.508-4.636Z" transform="translate(-636.589 -146.296)" fill="#002643"/>
      <path id="Path_6" data-name="Path 6" d="M790.43,164.979q0,1.056-.046,1.882a24.41,24.41,0,0,1-.367,3.443,10.7,10.7,0,0,1-2.847,5.645,12.692,12.692,0,0,1-17.673,0,10.472,10.472,0,0,1-2.846-5.645,20.807,20.807,0,0,1-.322-3.443q-.046-.78-.046-1.882v-4.132q0-1.1.046-1.881a20.83,20.83,0,0,1,.322-3.444,10.472,10.472,0,0,1,2.846-5.645,12.693,12.693,0,0,1,17.673,0,10.7,10.7,0,0,1,2.847,5.645,24.441,24.441,0,0,1,.367,3.444q.045.826.046,1.881Zm-6.7-8.492a5.5,5.5,0,0,0-1.285-2.755,5.138,5.138,0,0,0-4.085-1.744,5.147,5.147,0,0,0-5.371,4.5,42.6,42.6,0,0,0-.321,6.427,42.582,42.582,0,0,0,.321,6.426,5.147,5.147,0,0,0,5.371,4.5,5.135,5.135,0,0,0,4.085-1.744,5.5,5.5,0,0,0,1.285-2.755,43.12,43.12,0,0,0,.322-6.426A43.144,43.144,0,0,0,783.728,156.487Z" transform="translate(-638.307 -146.296)" fill="#002643"/>
    </g>
    <g id="Group_2" data-name="Group 2" transform="translate(625.3 187.154)">
      <path id="Path_7" data-name="Path 7" d="M635.374,195.346a2.752,2.752,0,0,1-1.936.679h-2.6v3.8h-.679v-8.948h3.28a2.788,2.788,0,0,1,1.936.666,2.747,2.747,0,0,1,0,3.808Zm-2.011-3.871h-2.526v3.946h2.526q2.1,0,2.1-1.972T633.363,191.476Z" transform="translate(-630.158 -190.872)" fill="#002643"/>
      <path id="Path_8" data-name="Path 8" d="M644.327,196.062q0-1.809-1.672-1.81-1.711,0-1.71,1.81v3.758h-.64v-8.948h.64v3.607a2.237,2.237,0,0,1,1.785-.792,1.988,1.988,0,0,1,2.236,2.262v3.871h-.64Z" transform="translate(-630.765 -190.872)" fill="#002643"/>
      <path id="Path_9" data-name="Path 9" d="M653.187,199.317a2.5,2.5,0,0,1-1.847.678,2.423,2.423,0,0,1-1.785-.553,1.6,1.6,0,0,1-.439-1.181q0-1.747,2.111-1.748h1.961v-.679q0-1.482-1.709-1.483a1.9,1.9,0,0,0-1.671.767l-.465-.4a2.446,2.446,0,0,1,2.137-.93q2.35,0,2.35,1.986v4.147h-.641Zm-1.885-2.288q-1.547,0-1.547,1.219,0,1.182,1.584,1.182a3.4,3.4,0,0,0,.792-.075,1.55,1.55,0,0,0,.716-.39,1.578,1.578,0,0,0,.339-1.156v-.779Z" transform="translate(-631.293 -191.046)" fill="#002643"/>
      <path id="Path_10" data-name="Path 10" d="M661.958,194.91a1.563,1.563,0,0,0-1.143-.478,1.481,1.481,0,0,0-1.207.553,1.982,1.982,0,0,0-.414,1.282V200h-.641v-6.057h.641v.8a1.938,1.938,0,0,1,1.772-.879,1.98,1.98,0,0,1,1.458.577Z" transform="translate(-631.858 -191.051)" fill="#002643"/>
      <path id="Path_11" data-name="Path 11" d="M673.948,196.242q0-1.809-1.672-1.81a1.506,1.506,0,0,0-1.709,1.7V200h-.64v-3.758q0-1.809-1.671-1.81-1.711,0-1.709,1.81V200h-.641v-6.057h.641v.716a2.247,2.247,0,0,1,1.8-.792,2,2,0,0,1,1.948,1.106,2.292,2.292,0,0,1,2.062-1.106,2.082,2.082,0,0,1,2.224,2.262V200h-.629Z" transform="translate(-632.298 -191.051)" fill="#002643"/>
      <path id="Path_12" data-name="Path 12" d="M683.051,199.317a2.5,2.5,0,0,1-1.847.678,2.421,2.421,0,0,1-1.784-.553,1.6,1.6,0,0,1-.44-1.181q0-1.747,2.112-1.748h1.96v-.679q0-1.482-1.709-1.483a1.9,1.9,0,0,0-1.672.767l-.464-.4a2.445,2.445,0,0,1,2.136-.93q2.351,0,2.35,1.986v4.147h-.641Zm-1.885-2.288q-1.546,0-1.546,1.219,0,1.182,1.583,1.182a3.4,3.4,0,0,0,.793-.075,1.542,1.542,0,0,0,.715-.39,1.573,1.573,0,0,0,.339-1.156v-.779Z" transform="translate(-633.081 -191.046)" fill="#002643"/>
      <path id="Path_13" data-name="Path 13" d="M692.705,199.065a2.583,2.583,0,0,1-2,.93,2.42,2.42,0,0,1-1.949-.829,3.974,3.974,0,0,1,0-4.549,2.42,2.42,0,0,1,1.949-.829,2.583,2.583,0,0,1,2,.93l-.44.4a2.035,2.035,0,0,0-1.558-.767,1.808,1.808,0,0,0-1.609.8,3.826,3.826,0,0,0,0,3.468,1.808,1.808,0,0,0,1.609.8,2.087,2.087,0,0,0,1.558-.767Z" transform="translate(-633.623 -191.046)" fill="#002643"/>
      <path id="Path_14" data-name="Path 14" d="M696.918,197.029q0,2.389,1.973,2.388a2.3,2.3,0,0,0,1.672-.729l.478.377a3.225,3.225,0,0,1-.942.691,2.991,2.991,0,0,1-1.245.239q-2.576,0-2.576-3.1t2.426-3.1q2.426,0,2.425,2.953v.289Zm3.57-.515a3.547,3.547,0,0,0-.214-1.143,1.72,1.72,0,0,0-3.141,0,3.976,3.976,0,0,0-.214,1.143Z" transform="translate(-634.116 -191.046)" fill="#002643"/>
      <path id="Path_15" data-name="Path 15" d="M709.47,199.208a2.234,2.234,0,0,1-1.784.792,2.2,2.2,0,0,1-1.61-.578,2.224,2.224,0,0,1-.628-1.684v-3.87h.641v3.758q0,1.809,1.672,1.81,1.709,0,1.709-1.81v-3.758h.641v6.057h-.641Z" transform="translate(-634.665 -191.051)" fill="#002643"/>
      <path id="Path_16" data-name="Path 16" d="M716.451,199.881q-1.458,0-1.458-1.583v-4h-.829v-.478h.829v-1.936h.641v1.936H717v.478h-1.37v4.009q0,1.006.93,1.006H717v.565Z" transform="translate(-635.187 -190.933)" fill="#002643"/>
      <path id="Path_17" data-name="Path 17" d="M721.035,192.61h.792v.792h-.792Zm.076,1.257h.64v6.057h-.64Z" transform="translate(-635.599 -190.976)" fill="#002643"/>
      <path id="Path_18" data-name="Path 18" d="M730.564,199.065a2.584,2.584,0,0,1-2,.93,2.42,2.42,0,0,1-1.948-.829,3.974,3.974,0,0,1,0-4.549,2.42,2.42,0,0,1,1.948-.829,2.584,2.584,0,0,1,2,.93l-.44.4a2.035,2.035,0,0,0-1.559-.767,1.81,1.81,0,0,0-1.609.8,3.834,3.834,0,0,0,0,3.468,1.81,1.81,0,0,0,1.609.8,2.087,2.087,0,0,0,1.559-.767Z" transform="translate(-635.89 -191.046)" fill="#002643"/>
      <path id="Path_19" data-name="Path 19" d="M738.222,199.317a2.5,2.5,0,0,1-1.847.678,2.422,2.422,0,0,1-1.785-.553,1.6,1.6,0,0,1-.439-1.181q0-1.747,2.111-1.748h1.961v-.679q0-1.482-1.709-1.483a1.905,1.905,0,0,0-1.672.767l-.465-.4a2.446,2.446,0,0,1,2.137-.93q2.349,0,2.35,1.986v4.147h-.641Zm-1.885-2.288q-1.547,0-1.547,1.219,0,1.182,1.584,1.182a3.4,3.4,0,0,0,.792-.075,1.55,1.55,0,0,0,.716-.39,1.578,1.578,0,0,0,.339-1.156v-.779Z" transform="translate(-636.384 -191.046)" fill="#002643"/>
      <path id="Path_20" data-name="Path 20" d="M745.019,199.82q-1.458,0-1.458-1.571v-7.377h.641v7.365q0,1.018.93,1.018h.44v.565Z" transform="translate(-636.947 -190.872)" fill="#002643"/>
      <path id="Path_21" data-name="Path 21" d="M751.131,199.995a3.394,3.394,0,0,1-2.45-.867l.44-.44a2.606,2.606,0,0,0,1.985.742q1.822,0,1.822-1.232,0-.893-1.155-1.018l-1.006-.088q-1.824-.151-1.823-1.583,0-1.722,2.174-1.721a3.475,3.475,0,0,1,2.124.64l-.427.428a2.8,2.8,0,0,0-1.7-.515q-1.546,0-1.546,1.169,0,.893,1.231,1.018l.981.087a2.643,2.643,0,0,1,1.269.39,1.4,1.4,0,0,1,.5,1.194Q753.557,199.995,751.131,199.995Z" transform="translate(-637.254 -191.046)" fill="#002643"/>
    </g>
    <g id="Group_3" data-name="Group 3" transform="translate(549.017 128.767)">
      <path id="Path_22" data-name="Path 22" d="M597.432,163.2a8.949,8.949,0,0,1-13.422,1.218,8.95,8.95,0,0,0-12.874.542l12.879,12.881h13.418Z" transform="translate(-550.341 -130.753)" fill="#97bf26"/>
      <path id="Path_23" data-name="Path 23" d="M592.831,142.414h18.835V153.48a2.348,2.348,0,0,0,4.7,0h0V140.066a2.349,2.349,0,0,0-2.349-2.348H588.136l-8.26-8.262a2.331,2.331,0,0,0-1.66-.688h-26.85a2.349,2.349,0,0,0-2.348,2.348v26.846a2.365,2.365,0,0,0,.688,1.66l22.836,22.837H553.714V171.38a2.348,2.348,0,1,0-4.7,0v13.425a2.348,2.348,0,0,0,2.348,2.348h25.872l8.261,8.261a2.363,2.363,0,0,0,1.66.688H614a2.346,2.346,0,0,0,2.348-2.348V166.916a2.362,2.362,0,0,0-.687-1.66Zm-39.117,14.574V133.464h23.529l4.252,4.253H560.314a2.348,2.348,0,0,0-2.348,2.348V153.48a2.364,2.364,0,0,0,.687,1.66l22.376,22.377a2.364,2.364,0,0,0,1.66.688h13.418a2.349,2.349,0,0,0,2.349-2.348V168.1l4.251,4.25v10.105H579.183Zm28-5.624,12.047,12.043v10.1H583.666l-12.053-12.053V151.364Zm29.944,40.042H588.131l-4.251-4.252h21.176a2.346,2.346,0,0,0,2.348-2.348V171.38a2.333,2.333,0,0,0-.688-1.661L584.6,147.608l-.253-.253a2.343,2.343,0,0,0-1.661-.688h-13.42a2.35,2.35,0,0,0-2.349,2.348v7.745l-4.253-4.253V142.414H586.19l25.466,25.474Z" transform="translate(-549.017 -128.767)" fill="#002643"/>
    </g>
  </g>
</svg>
